<?xml version="1.0" standalone="no"?>
<!DOCTYPE svg PUBLIC "-//W3C//DTD SVG 20010904//EN"
 "http://www.w3.org/TR/2001/REC-SVG-20010904/DTD/svg10.dtd">
<svg version="1.0" xmlns="http://www.w3.org/2000/svg"
 width="300.000000pt" height="300.000000pt" viewBox="0 0 300.000000 300.000000"
 preserveAspectRatio="xMidYMid meet">
<metadata>
Created by potrace 1.16, written by Peter Selinger 2001-2019
</metadata>
<g transform="translate(0.000000,300.000000) scale(0.100000,-0.100000)"
fill="#000000" stroke="none">
<path d="M20 1500 l0 -1480 1480 0 1480 0 0 1480 0 1480 -1480 0 -1480 0 0
-1480z m2560 -10 l0 -1070 -1070 0 -1070 0 0 1070 0 1070 1070 0 1070 0 0
-1070z"/>
<path d="M1236 1496 c-306 -421 -556 -767 -556 -770 0 -3 123 -6 274 -6 l274
0 556 764 c306 421 556 767 556 770 0 3 -123 6 -274 6 l-274 0 -556 -764z"/>
</g>
</svg>
